<svg xmlns="http://www.w3.org/2000/svg" xmlns:xlink="http://www.w3.org/1999/xlink" viewBox="0,0,256,256" width="64px" height="64px"><defs><linearGradient x1="44.65448" y1="6.49485" x2="58.58566" y2="6.49485" gradientUnits="userSpaceOnUse" id="color-1"><stop offset="0" stop-color="#b8efff"></stop><stop offset="1" stop-color="#e5faff"></stop></linearGradient><linearGradient x1="32.49863" y1="36.51219" x2="-0.76637" y2="36.51219" gradientUnits="userSpaceOnUse" id="color-2"><stop offset="0" stop-color="#b8efff"></stop><stop offset="1" stop-color="#e5faff"></stop></linearGradient><radialGradient cx="33" cy="32.5" r="29.26" gradientUnits="userSpaceOnUse" id="color-3"><stop offset="0" stop-color="#b8efff"></stop><stop offset="0.642" stop-color="#d4f6ff"></stop><stop offset="1" stop-color="#e5faff"></stop></radialGradient><linearGradient x1="35" y1="67.325" x2="35" y2="15.325" gradientUnits="userSpaceOnUse" id="color-4"><stop offset="0" stop-color="#155cde"></stop><stop offset="0.278" stop-color="#1f7fe5"></stop><stop offset="0.569" stop-color="#279ceb"></stop><stop offset="0.82" stop-color="#2cafef"></stop><stop offset="1" stop-color="#2eb5f0"></stop></linearGradient></defs><g fill="none" fill-rule="nonzero" stroke="none" stroke-width="1" stroke-linecap="butt" stroke-linejoin="miter" stroke-miterlimit="10" stroke-dasharray="" stroke-dashoffset="0" font-family="none" font-weight="none" font-size="none" text-anchor="none" style="mix-blend-mode: normal"><g transform="scale(4,4)"><path d="M54.5,4v0c-1.381,0 -2.5,1.119 -2.5,2.5c0,1.381 1.119,2.5 2.5,2.5v0c1.381,0 2.5,-1.119 2.5,-2.5c0,-1.381 -1.119,-2.5 -2.5,-2.5" fill="url(#color-1)"></path><path d="M4.5,33c-1.933,0 -3.5,1.567 -3.5,3.5c0,1.933 1.567,3.5 3.5,3.5c1.933,0 3.5,-1.567 3.5,-3.5c0,-1.933 -1.567,-3.5 -3.5,-3.5" fill="url(#color-2)"></path><path d="M55,32h3.5c2.633,0 4.729,-2.247 4.48,-4.933c-0.218,-2.342 -2.31,-4.067 -5.043,-4.067h-3.278c-1.459,0 -2.743,-1.197 -2.655,-2.652c0.038,-0.63 0.309,-1.201 0.725,-1.618c0.451,-0.45 1.081,-0.73 1.771,-0.73h2.857c1.308,0 2.499,-0.941 2.63,-2.242c0.15,-1.497 -1.021,-2.758 -2.487,-2.758h-11.5c-1.105,0 -2,-0.895 -2,-2v0c0,-1.105 0.895,-2 2,-2h1.357c1.308,0 2.499,-0.941 2.63,-2.242c0.15,-1.497 -1.021,-2.758 -2.487,-2.758h-22.72h-8.78h-4.39c-1.67,0 -3.19,1.12 -3.53,2.76c-0.06,0.25 -0.08,0.5 -0.08,0.74c0,1.93 1.58,3.5 3.5,3.5h0.84c1.458,0 2.742,1.196 2.655,2.652c-0.038,0.63 -0.309,1.201 -0.725,1.618c-0.45,0.45 -1.08,0.73 -1.77,0.73h-5.33c-2.089,0 -3.955,1.529 -4.152,3.609c-0.226,2.386 1.643,4.391 3.982,4.391h9.112c2.209,0 4,1.791 4,4v0c0,2.209 -1.791,4 -4,4h-0.942c-2.089,0 -3.955,1.529 -4.152,3.609c-0.226,2.386 1.643,4.391 3.982,4.391v0c1.057,0 2.015,0.77 2.104,1.823c0.053,0.619 -0.173,1.189 -0.582,1.587c-0.36,0.37 -0.86,0.59 -1.41,0.59h-4.895c-2.611,0 -4.944,1.907 -5.194,4.506c-0.286,2.982 2.054,5.494 4.977,5.494h4c1.913,0 3.529,1.534 3.5,3.446c-0.029,1.955 1.552,3.554 3.5,3.554h17.31h5.76h12.93c2.339,0 4.208,-2.005 3.981,-4.391c-0.197,-2.08 -2.057,-3.609 -4.682,-3.609h-4.602c-1.997,0 -3.768,-1.635 -3.694,-3.631c0.034,-0.909 0.417,-1.738 1.028,-2.339c0.629,-0.64 1.509,-1.03 2.469,-1.03h3.358c2.03,0 3.847,-1.453 4.107,-3.466c0.31,-2.397 -1.501,-4.446 -3.816,-4.531c-1.56,-0.057 -2.975,-1.137 -3.133,-2.69c-0.098,-0.953 0.257,-1.826 0.864,-2.433c0.54,-0.54 1.29,-0.88 2.12,-0.88z" fill="url(#color-3)"></path><path d="M49.758,29.538l-24.115,-22.463c-2.526,-2.369 -6.643,-0.566 -6.643,2.909v33.089c0,2.83 2.886,4.728 5.461,3.592l6.672,-3.126c0.98,-0.424 2.118,0.007 2.577,0.976l5.159,11.052c0.729,1.536 2.25,2.433 3.834,2.433c0.817,0 1.651,-0.239 2.402,-0.75c1.752,-1.19 2.283,-3.56 1.372,-5.48l-4.892,-10.487c-0.486,-1.025 -0.028,-2.251 1.009,-2.699l6.073,-2.584c2.566,-1.132 3.142,-4.54 1.091,-6.462z" fill="url(#color-4)"></path></g></g></svg>